<svg xmlns="http://www.w3.org/2000/svg" width="103.738" height="27.839" viewBox="0 0 103.738 27.839">
  <g id="netflix_logo" data-name="netflix logo" transform="translate(-69 -227.034)">
    <path id="Path_26" data-name="Path 26" d="M83.224,227.034H78.857c-.008,5.939-.017,9.785-.025,15.723-1.877-5.8-3.755-9.632-5.638-15.723H69v27.839c1.416-.2,2.931-.395,4.348-.579,0-5.819.008-9.4.012-15.214,1.95,5.727,3.149,9.106,5.094,14.549,1.524-.174,3.2-.388,4.725-.543q.023-13.026.045-26.051" fill="#ed2517"/>
    <path id="Path_27" data-name="Path 27" d="M157.726,227.034h-12.1q-.024,12.842-.049,25.684,6.07-.552,12.153-.9c0-1.252,0-3.051.007-4.3-2.636.162-5.159.331-7.786.507,0-2.3.009-4.205.014-6.507,1.92-.033,3.948,0,5.909-.037,0-1.258,0-3.064.007-4.322-1.944.034-4,.038-5.909.075,0-2.3.009-3.564.013-5.866,1.2-.015,2.382-.017,3.559-.017h1.237c.982,0,1.967,0,2.97-.01,0-1.252-.03-3.05-.027-4.3" transform="translate(-58.19)" fill="#ed2517"/>
    <path id="Path_28" data-name="Path 28" d="M221.424,227.114H207.952c0,1.244,0,3.035-.006,4.279l.58,0c.585,0,1.17.006,1.756.012s1.169.011,1.754.011h.45c-.009,6.9-.018,13.206-.027,20.108,1.425-.053,2.951-.1,4.376-.134.007-6.864.013-13.131.019-19.995,1.506-.006,3.062-.01,4.568-.013,0-1.223,0-3.043,0-4.265" transform="translate(-105.58 -0.061)" fill="#ed2517"/>
    <path id="Path_29" data-name="Path 29" d="M288.011,227.034H275.862q0,12.088,0,24.175c.469,0,.944,0,1.421,0,.971,0,1.95,0,2.907.011,0-3.42,0-6.541,0-9.961h.722c.565,0,1.139,0,1.715,0s1.155,0,1.729,0c.591,0,1.177,0,1.75.01,0-1.226,0-3.05,0-4.276-.541-.006-1.094-.007-1.651-.007-.6,0-1.2,0-1.8,0s-1.2,0-1.788,0h-.671c0-2.2,0-3.439,0-5.638h4.3c1.174,0,2.348,0,3.533.007,0-1.229,0-3.09,0-4.318" transform="translate(-157.185)" fill="#ed2517"/>
    <path id="Path_30" data-name="Path 30" d="M338.207,227.115c.011,8.136-.028,16.272-.018,24.409,3.884.145,7.965.3,11.844.57,0-1.252,0-3.051-.007-4.3-2.455-.145-5.011-.317-7.468-.42-.011-6.968.027-13.288.016-20.256h-4.368" transform="translate(-204.546 -0.062)" fill="#ed2517"/>
    <path id="Path_31" data-name="Path 31" d="M402.444,227.118q.025,12.621.05,25.243c1.423.11,2.9.228,4.317.354q.008-12.79,0-25.6h-4.367" transform="translate(-253.372 -0.064)" fill="#ed2517"/>
    <path id="Path_32" data-name="Path 32" d="M434.82,227.12c1.747,4.254,3.344,8.521,5.118,13.039-1.843,4.34-3.719,8.651-5.561,12.814,1.525.151,3.1.371,4.627.541,1.093-2.681,2.088-4.745,3.182-7.5,1.093,2.933,2.086,5.2,3.176,8.227,1.522.2,3.494.48,5.014.7-1.842-4.924-3.857-10.052-5.709-14.705,1.844-4.371,3.727-8.543,5.643-13.112H445.54c-1.182,2.824-2,4.639-3.129,7.327-1.056-2.8-1.764-4.607-2.822-7.328H434.82" transform="translate(-277.637 -0.065)" fill="#ed2517"/>
  </g>
</svg>
